<svg width="617" height="171" viewBox="0 0 617 171" fill="none" xmlns="http://www.w3.org/2000/svg">
<path fill-rule="evenodd" clip-rule="evenodd" d="M167.995 42.7742V2.02401H85.0415V2H44.5467C21.0596 2 2.01654 21.1603 2.01654 44.7869V85.4563H1.99484V169H42.5374C65.2216 169 83.7656 151.126 84.9959 128.614C86.2349 151.13 104.77 169 127.454 169H167.995V85.4563H128.555C150.601 83.8627 167.995 65.3639 167.995 42.7742Z" stroke="#FCE61A" stroke-width="4"/>
<rect x="216" y="2" width="185" height="167" stroke="black" stroke-linejoin="bevel"/>
<path fill-rule="evenodd" clip-rule="evenodd" d="M400.992 2H355.811C330.902 2 310.501 19.3374 308.567 41.3727V2H215.992V42.7567C215.992 65.3508 235.377 83.8518 259.947 85.4454H215.992V169H261.173C286.081 169 306.482 151.665 308.417 129.629V169H400.992V128.245C400.992 105.651 381.607 87.1504 357.037 85.5568H400.992V2Z" stroke="#67C0FF" stroke-width="4"/>
<rect x="449" y="2" width="166" height="167" stroke="black" stroke-linejoin="bevel"/>
<path fill-rule="evenodd" clip-rule="evenodd" d="M614.993 44.7853C614.993 21.154 595.949 1.99782 572.462 1.99782H531.958V41.6767C530.363 19.5058 511.982 2.01965 489.538 2.01965H448.993V168.976H489.538C511.982 168.976 530.363 151.488 531.958 129.319V168.998H572.46C595.949 168.998 614.991 149.842 614.991 126.21V85.5775V85.5775L614.993 44.7853Z" stroke="#38DDA1" stroke-width="4"/>
</svg>
